<?xml version="1.0" standalone="no"?>
<!DOCTYPE svg PUBLIC "-//W3C//DTD SVG 20010904//EN"
 "http://www.w3.org/TR/2001/REC-SVG-20010904/DTD/svg10.dtd">
<svg version="1.0" xmlns="http://www.w3.org/2000/svg"
 width="531.000000pt" height="531.000000pt" viewBox="0 0 531.000000 531.000000"
 preserveAspectRatio="xMidYMid meet">
<metadata>
Created by potrace 1.14, written by Peter Selinger 2001-2017
</metadata>
<g transform="translate(0.000000,531.000000) scale(0.100000,-0.100000)"
fill="#000000" stroke="none">
<path d="M1295 5193 c-21 -48 -1 -95 38 -87 32 6 76 6 142 -1 33 -4 68 -6 78
-6 9 0 17 -4 17 -9 0 -5 7 -7 15 -4 8 4 23 0 32 -7 9 -8 19 -13 22 -12 13 4
78 -33 108 -63 27 -26 70 -101 79 -139 2 -5 6 -21 9 -35 13 -51 16 -100 21
-345 2 -137 6 -256 9 -264 4 -10 23 -12 88 -6 45 3 165 8 266 11 102 2 189 8
193 12 5 5 9 156 8 335 l0 326 22 7 c101 34 435 86 553 86 103 0 275 -16 356
-32 105 -22 270 -68 279 -79 3 -3 14 -8 24 -9 11 -2 42 -15 70 -28 27 -13 56
-24 63 -24 7 0 13 -4 13 -10 0 -5 7 -10 15 -10 8 0 15 -5 15 -11 0 -5 3 -8 8
-5 4 2 26 -9 50 -25 23 -16 46 -29 50 -29 4 0 23 -14 42 -30 57 -49 59 -50 64
-50 7 0 105 -89 125 -114 9 -10 28 -32 43 -47 15 -16 47 -55 70 -87 24 -31 46
-58 51 -60 4 -2 7 -10 7 -17 0 -8 6 -20 13 -27 18 -17 102 -175 112 -208 4
-14 15 -34 24 -44 13 -16 13 -18 1 -11 -11 6 -10 3 2 -11 10 -11 19 -30 21
-42 2 -12 6 -25 10 -28 4 -4 7 -18 7 -30 0 -13 4 -25 9 -28 8 -5 52 -170 67
-251 2 -11 6 -31 8 -45 20 -103 29 -227 27 -390 -2 -195 -5 -270 -12 -270 -4
0 -7 -12 -6 -27 0 -63 -45 -297 -74 -379 -11 -33 -22 -68 -25 -79 -7 -35 -76
-190 -88 -197 -6 -4 -8 -8 -4 -8 19 0 -124 -226 -185 -293 -19 -20 -33 -37
-31 -37 15 0 -158 -152 -271 -238 -52 -39 -308 -172 -332 -172 -20 0 -29 -42
-27 -130 2 -145 -3 -133 52 -126 49 7 61 9 102 19 14 4 36 9 50 12 101 20 140
31 259 71 74 25 153 55 175 67 23 11 47 22 55 23 8 2 17 6 20 11 3 5 31 21 61
36 30 15 69 36 85 47 17 11 37 23 46 27 19 9 73 50 100 76 11 9 19 15 19 13 0
-5 82 68 139 125 53 52 132 139 126 139 -4 0 27 38 58 71 9 10 17 23 17 27 0
5 8 17 18 28 10 10 21 26 25 34 4 8 19 33 32 55 29 46 136 260 139 278 1 7 5
17 9 23 9 15 65 192 71 224 3 14 5 25 6 25 2 0 4 12 25 129 8 50 19 127 24
171 9 86 6 485 -4 550 -10 63 -33 187 -39 215 -4 14 -8 37 -11 51 -6 35 -57
191 -81 249 -30 71 -137 284 -150 298 -7 6 -16 21 -19 32 -3 11 -11 20 -16 20
-5 0 -9 6 -9 13 0 6 -14 28 -30 47 -16 19 -30 41 -30 48 0 7 -4 10 -10 7 -5
-3 -10 1 -10 9 0 9 -3 16 -7 16 -5 1 -28 27 -53 60 -25 33 -48 59 -51 60 -4 0
-33 26 -66 58 -74 71 -111 102 -122 102 -5 0 -11 4 -13 8 -9 23 -284 182 -315
182 -4 0 -19 6 -33 13 -31 16 -142 52 -152 49 -5 -1 -8 2 -8 7 0 5 -8 8 -17 7
-10 -2 -21 1 -24 6 -3 5 -22 10 -42 11 -21 1 -37 5 -37 8 0 6 -64 19 -107 22
-13 1 -23 4 -23 7 0 3 -8 6 -17 7 -10 0 -38 3 -63 7 -25 4 -63 9 -85 11 -22 3
-56 7 -75 10 -19 2 -62 7 -95 10 -33 3 -82 8 -110 12 -27 3 -505 7 -1061 10
-975 5 -1011 4 -1019 -14z"/>
<path d="M2286 4103 c-1 -2 -61 -4 -132 -6 -72 -2 -136 -7 -142 -11 -7 -4 -12
-2 -12 5 0 8 -4 8 -13 1 -7 -6 -30 -10 -52 -10 -22 0 -42 -1 -45 -2 -3 -1 -25
-3 -50 -4 -25 -2 -74 -6 -110 -11 -36 -4 -76 -9 -90 -10 -14 -2 -41 -6 -60
-10 -19 -4 -48 -8 -65 -10 -16 -2 -30 -4 -30 -5 0 -1 -13 -4 -30 -6 -92 -14
-345 -89 -356 -106 -3 -5 -10 -9 -15 -9 -20 2 -74 -21 -74 -31 0 -6 -3 -8 -7
-5 -3 4 -17 0 -30 -8 -13 -9 -23 -13 -23 -10 0 4 -12 -3 -26 -14 -15 -11 -30
-18 -35 -15 -5 3 -9 0 -9 -6 0 -6 -8 -14 -17 -17 -24 -9 -150 -94 -192 -129
-96 -82 -294 -294 -275 -294 4 0 1 -6 -7 -12 -69 -57 -309 -555 -281 -583 3
-3 1 -5 -5 -5 -11 0 -26 -50 -26 -82 0 -10 -3 -18 -8 -18 -4 0 -8 -8 -7 -17 0
-10 -7 -49 -15 -88 -16 -74 -24 -121 -37 -220 -9 -67 -5 -440 5 -495 3 -19 10
-60 15 -90 13 -75 21 -123 24 -135 2 -5 6 -23 10 -40 86 -360 246 -664 476
-902 22 -23 40 -40 40 -38 0 2 15 -11 33 -28 51 -49 109 -97 139 -115 16 -9
28 -20 28 -24 0 -4 7 -8 15 -8 8 0 15 -4 15 -10 0 -5 7 -10 15 -10 8 0 15 -4
15 -10 0 -5 4 -10 9 -10 5 0 38 -17 72 -38 90 -54 235 -121 319 -148 30 -9 60
-20 65 -24 6 -4 33 -13 60 -19 28 -6 75 -18 105 -27 54 -15 193 -40 276 -50
23 -3 52 -7 65 -9 62 -12 302 -16 1211 -19 542 -2 990 -1 997 3 16 10 18 68 3
83 -7 7 -54 13 -114 14 -126 3 -202 12 -206 24 -2 5 -19 12 -37 16 -19 3 -36
12 -39 20 -3 8 -10 14 -16 14 -29 0 -113 129 -124 190 -3 14 -5 25 -6 25 -5 0
-11 49 -15 118 -2 43 -7 82 -10 87 -3 5 -1 11 5 15 6 4 7 11 3 18 -11 17 -10
57 2 57 6 0 7 3 0 8 -12 8 -13 32 -2 50 5 6 4 12 -2 12 -8 0 -8 20 -1 40 3 8
1 54 -3 75 -3 11 0 26 6 33 6 8 6 12 -1 12 -9 0 -9 19 -2 40 2 5 2 34 -2 101
-1 19 2 40 6 47 4 7 2 12 -3 12 -13 0 -10 22 4 32 6 5 5 8 -4 8 -10 0 -11 3
-2 14 7 8 8 16 4 19 -9 6 -9 138 0 162 4 8 1 17 -5 21 -7 4 -6 9 3 15 12 7 12
9 0 9 -10 0 -11 3 -2 14 7 8 8 16 4 19 -9 6 -8 155 1 164 3 4 1 12 -5 20 -9
10 -8 13 2 13 12 0 12 2 0 9 -9 6 -10 10 -2 16 9 5 9 10 0 21 -9 11 -9 17 1
29 7 9 8 15 2 15 -9 0 -9 19 -2 40 3 8 1 54 -3 75 -3 11 0 26 6 33 6 8 6 12
-1 12 -9 0 -9 19 -2 40 1 3 2 19 1 35 -1 17 -2 59 -4 95 -1 36 1 77 5 92 4 16
2 30 -4 34 -6 4 -5 10 3 15 12 7 12 9 0 9 -10 0 -11 3 -2 13 6 8 8 17 4 21
-11 11 -9 130 2 138 7 5 7 8 0 8 -11 0 -12 71 -1 89 4 6 2 11 -3 11 -13 0 -10
22 4 32 6 5 5 8 -4 8 -10 0 -11 3 -2 14 7 8 8 16 4 19 -9 6 -8 230 1 245 3 6
1 14 -5 18 -8 4 -7 9 2 15 12 7 12 9 0 9 -10 0 -11 3 -2 13 6 8 8 17 4 21 -11
11 -9 130 2 138 7 5 7 8 0 8 -11 0 -12 71 -1 89 4 6 2 11 -3 11 -13 0 -10 22
4 32 6 5 5 8 -4 8 -10 0 -11 3 -2 13 6 8 8 17 4 21 -10 10 -10 99 0 114 6 7 6
12 -1 12 -6 0 -9 8 -7 18 2 9 4 17 5 17 1 0 3 10 4 23 2 12 0 22 -4 22 -4 0
-7 7 -7 15 0 8 3 15 6 15 4 0 7 24 7 53 1 83 24 198 45 223 5 6 6 13 4 16 -3
3 18 31 47 61 77 82 150 108 323 114 98 4 133 9 142 20 12 16 8 62 -7 77 -8 8
-1726 16 -1734 9z m69 -227 c39 0 78 -4 89 -9 14 -7 16 -6 11 4 -5 8 -4 10 3
5 6 -4 31 -9 54 -11 51 -5 104 -13 203 -30 71 -12 160 -36 169 -45 8 -8 11
-523 11 -1692 0 -1503 -2 -1684 -15 -1701 -15 -18 -39 -24 -200 -51 -19 -4
-46 -8 -60 -11 -27 -5 -88 -12 -185 -22 -80 -7 -305 -10 -305 -2 0 3 -21 6
-47 8 -41 2 -144 18 -223 35 -84 18 -242 73 -251 88 -3 5 -10 9 -15 9 -13 -1
-48 11 -54 18 -3 3 -29 17 -57 31 -29 14 -53 28 -53 33 0 4 -5 7 -10 7 -42 0
-360 291 -360 330 0 6 -4 10 -9 10 -19 0 -201 307 -213 360 -2 8 -6 18 -11 21
-4 3 -16 32 -28 65 -11 32 -23 66 -26 74 -7 18 -8 20 -29 95 -9 33 -18 69 -20
80 -12 54 -34 195 -37 230 -2 22 -5 45 -8 50 -12 24 0 448 16 555 2 14 6 45
10 70 12 80 15 99 30 170 17 82 81 275 101 305 8 12 11 25 7 28 -3 4 0 7 7 7
7 0 11 3 7 6 -3 3 8 29 25 57 17 29 31 58 31 65 0 6 3 12 7 12 3 0 14 15 25
33 16 27 79 115 121 167 34 43 204 210 213 210 6 0 11 3 11 8 0 4 17 18 37 32
20 14 43 31 50 38 7 7 13 10 13 6 0 -4 10 2 23 14 36 34 234 128 332 157 50
15 97 29 105 33 8 3 23 6 33 7 9 2 18 3 20 5 7 6 109 22 152 24 22 1 45 4 50
7 6 3 45 5 87 5 46 -1 78 3 78 9 0 7 3 7 8 0 4 -5 39 -10 77 -9z"/>
<path d="M2237 3753 c-1 0 -44 -4 -95 -7 -101 -7 -230 -29 -259 -45 -10 -5
-20 -22 -21 -38 -2 -15 -4 -469 -6 -1008 -2 -539 -6 -996 -11 -1015 -4 -19 -8
-39 -9 -45 -12 -59 -68 -165 -89 -165 -6 0 -7 -3 -4 -6 11 -12 -70 -63 -133
-84 -33 -11 -97 -23 -142 -26 -100 -6 -96 -6 -130 -1 -35 5 -46 -2 -52 -37 -6
-35 10 -70 30 -62 8 3 14 1 14 -5 0 -6 7 -6 20 1 12 6 20 7 20 1 0 -10 19 -9
36 2 6 3 14 4 18 0 9 -9 56 -10 56 -2 0 4 14 4 30 -1 17 -5 30 -5 30 -1 0 5
18 5 40 1 22 -4 40 -3 40 2 0 5 9 4 20 -2 14 -8 20 -8 20 0 0 8 6 8 20 0 14
-8 20 -8 20 0 0 8 6 8 20 0 14 -8 20 -8 20 0 0 8 6 8 20 0 14 -8 20 -8 20 0 0
8 6 8 20 0 14 -8 20 -8 20 0 0 8 6 8 20 0 14 -8 20 -8 20 0 0 8 6 8 20 0 11
-6 20 -7 20 -2 0 5 18 6 40 2 22 -4 40 -3 40 2 0 5 9 4 20 -2 11 -6 20 -7 20
-3 0 4 43 6 96 3 52 -3 103 -1 112 4 10 6 17 5 20 -2 2 -8 11 -8 30 -1 19 7
28 7 30 -1 3 -8 8 -8 18 1 11 9 14 8 14 -2 0 -9 3 -10 10 -3 7 7 29 8 55 4 24
-4 50 -3 57 1 7 4 18 3 25 -3 9 -7 13 -7 13 1 0 7 3 10 8 7 7 -4 182 -10 192
-6 3 1 16 3 29 4 26 3 54 33 45 48 -3 5 -5 42 -5 82 0 49 -4 78 -13 85 -12 10
-74 23 -123 25 -13 1 -23 3 -23 7 0 3 -10 5 -22 6 -13 0 -41 4 -63 8 -22 4
-47 8 -55 8 -8 0 -23 9 -33 20 -16 19 -17 85 -17 1117 0 604 -2 1105 -6 1114
-3 9 -18 16 -33 17 -14 0 -52 1 -84 2 -32 1 -59 1 -60 0z"/>
</g>
</svg>
